<svg width="64" height="64" viewBox="0 0 64 64" fill="none" xmlns="http://www.w3.org/2000/svg">
    <!-- Hero Section Inspired Background Circle -->
    <circle cx="32" cy="32" r="32" fill="url(#ethioGradientFavicon)"/>
    
    <!-- Hero Colors Background -->
    <rect x="8" y="20" width="48" height="24" rx="6" fill="url(#flagGradientFavicon)"/>
    
    <!-- Passport/Document Representation -->
    <rect x="12" y="24" width="18" height="12" rx="2" fill="#0F1B3C" opacity="0.9"/>
    <rect x="14" y="26" width="14" height="8" rx="1" fill="white"/>
    <circle cx="18" cy="29" r="2" fill="#1E2A54"/>
    <line x1="22" y1="28" x2="26" y2="28" stroke="#1E2A54" stroke-width="1"/>
    <line x1="22" y1="30" x2="24" y2="30" stroke="#1E2A54" stroke-width="1"/>
    
    <!-- Airplane Symbol (Immigration/Travel) -->
    <path class="airplane-route" d="M34 28 L48 22 L50 24 L48 26 L52 28 L50 30 L46 28 L42 32 L34 28 Z" fill="#D4AF37" opacity="0.9"/>
    <path d="M36 30 L44 26 L46 28 L44 30 L36 30 Z" fill="#FFD700" opacity="0.7"/>
    
    <!-- Global Connection Lines -->
    <path class="global-connectivity" d="M20 40 Q32 35 44 40" stroke="#2C3E6B" stroke-width="2" fill="none" opacity="0.6"/>
    <path class="flight-path" d="M16 44 Q32 38 48 44" stroke="#3A5283" stroke-width="1.5" fill="none" opacity="0.5"/>
    
    <!-- Star Pattern (subtle) -->
    <path d="M32 16 L34 20 L38 20 L35 23 L36 27 L32 25 L28 27 L29 23 L26 20 L30 20 Z" fill="#48669A" opacity="0.3"/>
    
    <defs>
        <!-- Hero Section Inspired Gradient -->
        <linearGradient id="ethioGradientFavicon" x1="0%" y1="0%" x2="100%" y2="100%">
            <stop offset="0%" style="stop-color:#0F1B3C;stop-opacity:0.9" />
            <stop offset="25%" style="stop-color:#1E2A54;stop-opacity:0.8" />
            <stop offset="50%" style="stop-color:#2C3E6B;stop-opacity:0.8" />
            <stop offset="75%" style="stop-color:#3A5283;stop-opacity:0.8" />
            <stop offset="100%" style="stop-color:#48669A;stop-opacity:0.9" />
        </linearGradient>
        
        <!-- Hero Colors Gradient -->
        <linearGradient id="flagGradientFavicon" x1="0%" y1="0%" x2="100%" y2="0%">
            <stop offset="0%" style="stop-color:#0F1B3C;stop-opacity:0.4" />
            <stop offset="25%" style="stop-color:#1E2A54;stop-opacity:0.4" />
            <stop offset="50%" style="stop-color:#2C3E6B;stop-opacity:0.4" />
            <stop offset="75%" style="stop-color:#3A5283;stop-opacity:0.4" />
            <stop offset="100%" style="stop-color:#48669A;stop-opacity:0.4" />
        </linearGradient>
    </defs>
</svg>